/* XPM */
static char * C:\Users\Derwe\Downloads\Textures\heart_xpm[] = {
"32 32 351 2",
"  	c #22B14C",
". 	c #7C7C7C",
"+ 	c #848484",
"@ 	c #8B8B8B",
"# 	c #7B7B7B",
"$ 	c #BABABA",
"% 	c #939393",
"& 	c #B2B2B2",
"* 	c #9C9C9C",
"= 	c #ABA9A9",
"- 	c #7A7A7A",
"; 	c #8A8A8A",
"> 	c #787777",
", 	c #8D8D8D",
"' 	c #848383",
") 	c #9A9999",
"! 	c #A8A8A8",
"~ 	c #989898",
"{ 	c #9E9E9E",
"] 	c #858585",
"^ 	c #999999",
"/ 	c #A29F9F",
"( 	c #898989",
"_ 	c #767676",
": 	c #646363",
"< 	c #949393",
"[ 	c #8D8C8C",
"} 	c #8C8C8C",
"| 	c #9F9F9F",
"1 	c #FF3D3B",
"2 	c #F73B3A",
"3 	c #ED3939",
"4 	c #E43838",
"5 	c #8F8F8F",
"6 	c #A3A3A3",
"7 	c #7A7979",
"8 	c #8A8989",
"9 	c #F83C3B",
"0 	c #EE3939",
"a 	c #E33737",
"b 	c #DC3637",
"c 	c #949494",
"d 	c #919090",
"e 	c #9B9B9B",
"f 	c #FF403E",
"g 	c #FF3D3C",
"h 	c #FB3A39",
"i 	c #F03838",
"j 	c #E63737",
"k 	c #DD3536",
"l 	c #DC3738",
"m 	c #868686",
"n 	c #888888",
"o 	c #8C8B8B",
"p 	c #FF3E3C",
"q 	c #FC3B3A",
"r 	c #F33938",
"s 	c #E83737",
"t 	c #DC3435",
"u 	c #DA3435",
"v 	c #DA3536",
"w 	c #7B7878",
"x 	c #737373",
"y 	c #898888",
"z 	c #7D7D7D",
"A 	c #FF3F3D",
"B 	c #FF3C3A",
"C 	c #F63938",
"D 	c #EC3736",
"E 	c #E63636",
"F 	c #E03535",
"G 	c #DB3535",
"H 	c #DB3537",
"I 	c #909090",
"J 	c #7F7F7F",
"K 	c #FF3B3A",
"L 	c #F63939",
"M 	c #E83636",
"N 	c #DB3434",
"O 	c #D33233",
"P 	c #D63435",
"Q 	c #797979",
"R 	c #929191",
"S 	c #808080",
"T 	c #F93A38",
"U 	c #EE3736",
"V 	c #E43534",
"W 	c #DF3434",
"X 	c #DC3434",
"Y 	c #D83334",
"Z 	c #DB3435",
"` 	c #DB3536",
" .	c #828282",
"..	c #ACACAC",
"+.	c #838383",
"@.	c #F43938",
"#.	c #E63635",
"$.	c #D83332",
"%.	c #CB3030",
"&.	c #C83030",
"*.	c #CA3031",
"=.	c #CF3233",
"-.	c #D83436",
";.	c #9A9A9A",
">.	c #AAAAAA",
",.	c #6D6C6C",
"'.	c #666565",
").	c #FF3C3B",
"!.	c #FA3938",
"~.	c #ED3736",
"{.	c #DD3333",
"].	c #D73232",
"^.	c #D43231",
"/.	c #D23232",
"(.	c #D33232",
"_.	c #FC3B39",
":.	c #F93A39",
"<.	c #EF3837",
"[.	c #E23534",
"}.	c #D33131",
"|.	c #C72F2F",
"1.	c #C22E2E",
"2.	c #C22E2F",
"3.	c #C52F30",
"4.	c #CC3132",
"5.	c #D23234",
"6.	c #919191",
"7.	c #A2A2A2",
"8.	c #26AD4C",
"9.	c #5D5E5D",
"0.	c #7E7D7D",
"a.	c #848282",
"b.	c #747474",
"c.	c #EB3635",
"d.	c #E33433",
"e.	c #D93231",
"f.	c #D03130",
"g.	c #CC302F",
"h.	c #CB302F",
"i.	c #CF3131",
"j.	c #D63233",
"k.	c #EB3736",
"l.	c #DC3333",
"m.	c #CF3130",
"n.	c #C32E2E",
"o.	c #BC2C2D",
"p.	c #BA2C2D",
"q.	c #BC2D2D",
"r.	c #C12E2F",
"s.	c #C62F30",
"t.	c #CD3132",
"u.	c #AEAEAE",
"v.	c #F83937",
"w.	c #EF3736",
"x.	c #E23433",
"y.	c #DA3332",
"z.	c #CF302F",
"A.	c #C72E2E",
"B.	c #C52E2E",
"C.	c #C42E2E",
"D.	c #CC3030",
"E.	c #D33231",
"F.	c #D93332",
"G.	c #CA2F2F",
"H.	c #C12E2D",
"I.	c #BB2C2C",
"J.	c #B82C2C",
"K.	c #B72B2C",
"L.	c #BF2D2E",
"M.	c #C32E2F",
"N.	c #C73030",
"O.	c #8D8B8B",
"P.	c #9F9E9E",
"Q.	c #EE3735",
"R.	c #E63534",
"S.	c #DC3332",
"T.	c #D33130",
"U.	c #C22D2D",
"V.	c #C02D2C",
"W.	c #BE2D2C",
"X.	c #BF2D2D",
"Y.	c #C02D2D",
"Z.	c #C92F2F",
"`.	c #C82F2F",
" +	c #BA2C2C",
".+	c #B62B2B",
"++	c #B52B2B",
"@+	c #BD2D2D",
"#+	c #C32F30",
"$+	c #9B9999",
"%+	c #6F6F6F",
"&+	c #DE3332",
"*+	c #D63130",
"=+	c #D0302F",
"-+	c #C62E2D",
";+	c #BF2C2C",
">+	c #BB2C2B",
",+	c #BA2C2B",
"'+	c #BC2C2C",
")+	c #BE2D2D",
"!+	c #B42B2B",
"~+	c #BB2C2D",
"{+	c #BB2D2D",
"]+	c #A0A0A0",
"^+	c #929292",
"/+	c #A29E9E",
"(+	c #999797",
"_+	c #D53130",
":+	c #D1302F",
"<+	c #CC2F2E",
"[+	c #C42D2D",
"}+	c #BD2C2B",
"|+	c #BA2B2B",
"1+	c #B82B2B",
"2+	c #B72B2B",
"3+	c #B92C2C",
"4+	c #B32B2B",
"5+	c #A6A4A4",
"6+	c #ADADAD",
"7+	c #A09D9D",
"8+	c #CD2F2E",
"9+	c #CB2F2E",
"0+	c #C82E2D",
"a+	c #C32D2C",
"b+	c #B92B2B",
"c+	c #B72B2A",
"d+	c #B62B2A",
"e+	c #B52B2A",
"f+	c #B32A2B",
"g+	c #B32A2A",
"h+	c #B22A2A",
"i+	c #B12A2A",
"j+	c #8F8E8E",
"k+	c #979696",
"l+	c #C52D2C",
"m+	c #C22D2C",
"n+	c #B82B2A",
"o+	c #B52A2A",
"p+	c #B42A2A",
"q+	c #B02929",
"r+	c #AE2929",
"s+	c #AB2828",
"t+	c #8E8C8C",
"u+	c #9C9B9B",
"v+	c #BF2C2B",
"w+	c #C02C2B",
"x+	c #B92B2A",
"y+	c #B52A29",
"z+	c #B22A29",
"A+	c #B12A29",
"B+	c #AC2828",
"C+	c #A82828",
"D+	c #9B9A9A",
"E+	c #B42A29",
"F+	c #BB2B2A",
"G+	c #BC2B2A",
"H+	c #B22929",
"I+	c #AF2929",
"J+	c #B02A29",
"K+	c #AD2928",
"L+	c #AA2828",
"M+	c #A62727",
"N+	c #A12626",
"O+	c #9A9797",
"P+	c #727272",
"Q+	c #AF2927",
"R+	c #B72A29",
"S+	c #B62A29",
"T+	c #AF2928",
"U+	c #AD2929",
"V+	c #A82727",
"W+	c #A42726",
"X+	c #9F2625",
"Y+	c #979797",
"Z+	c #8B8A8A",
"`+	c #AA2726",
" @	c #B02928",
".@	c #B42929",
"+@	c #B32A29",
"@@	c #AD2828",
"#@	c #A72727",
"$@	c #A22626",
"%@	c #9D2525",
"&@	c #656565",
"*@	c #A82726",
"=@	c #AD2827",
"-@	c #B12928",
";@	c #B22928",
">@	c #9C2525",
",@	c #A4A4A4",
"'@	c #918F8F",
")@	c #9D2524",
"!@	c #A52625",
"~@	c #AE2828",
"{@	c #AB2827",
"]@	c #A92828",
"^@	c #A52727",
"/@	c #9F2525",
"(@	c #9B2524",
"_@	c #962424",
":@	c #7C7B7B",
"<@	c #992423",
"[@	c #A12524",
"}@	c #A62626",
"|@	c #A32626",
"1@	c #9E2525",
"2@	c #992424",
"3@	c #942424",
"4@	c #827E7E",
"5@	c #972423",
"6@	c #9C2423",
"7@	c #9F2524",
"8@	c #A12525",
"9@	c #A22625",
"0@	c #A02625",
"a@	c #962423",
"b@	c #922323",
"c@	c #969696",
"d@	c #932322",
"e@	c #962322",
"f@	c #982323",
"g@	c #992323",
"h@	c #9A2424",
"i@	c #9B2424",
"j@	c #942323",
"k@	c #902323",
"l@	c #9D9C9C",
"m@	c #8D2121",
"n@	c #8F2121",
"o@	c #8E2121",
"p@	c #902222",
"q@	c #8F2222",
"r@	c #8D2222",
"s@	c #ABABAB",
"t@	c #A5A5A5",
"u@	c #87201F",
"v@	c #851F1F",
"w@	c #841F1F",
"x@	c #872020",
"y@	c #892121",
"z@	c #9A9393",
"A@	c #969595",
"B@	c #837F7F",
"C@	c #801F1E",
"D@	c #7E1E1E",
"E@	c #801E1E",
"F@	c #832020",
"G@	c #6D6D6D",
"H@	c #757575",
"I@	c #7B1E1D",
"J@	c #828181",
"            . + @                             # $ %             ",
"          & * = % -                         ; % > + ,           ",
"        ' ) ! ~ { ] ^                     ^ / @ ( _ : <         ",
"      [ } | 1 2 3 4 5 # 6             7 8 ; 9 0 a b . c c       ",
"    ' d e f g h i j k l * m n     7 o , p q r s t u v % ; w     ",
"    x y z A B C D E F G H - ; I I J % p K L M N O O P n m Q     ",
"  R ' S f K T U V W X Y Z `  ...< +.1 B @.#.$.%.&.*.=.-.m ;.>.  ",
"  ,.'.} ).!.~.V {.].^./.(.Y t ~ } _.:.<.[.}.|.1.2.3.4.5.6.7.% 8.",
"9.0.a.b.!.c.d.e.f.g.h.%.%.i.j.W M k.#.l.m.n.o.p.q.r.s.t.;.6 5 9.",
"I u.* v.w.x.y.z.A.B.C.C.B.|.D.E.$.F.^.G.H.I.J.K.p.L.M.N.*., O.P.",
"/ P.6 Q.R.S.T.A.U.V.W.X.Y.Y.n.|.Z.`.C.X. +.+++++J.@+L.2.#+Q  .>.",
"$+' %+d.&+*+=+-+;+>+,+ +'+'+@+X.X.)+'+J..+!+!+++K. +~+q.{+]+6.^+",
"u./+(+x _+:+<+[+}+|+1+2+1+3+ + + +3+2+++!+!+4+4+++.+2+2+} 6.5+6+",
"  7+[ e 8+9+0+a+}+b+c+d+e+.+.+2+.+.+++!+!+f+g+h+g+g+g+i+,  .}   ",
"  j+k+& l+-+l+m+}+n+o+p+g+p+++++++++!+!+f+h+i+h+i+q+r+s+z 6.;.  ",
"    t+;.u+v+w+w+}+x+y+z+A+A+g+g+p+!+!+!+h+i+i+q+r+B+C+ .m P.    ",
"    D+7.^ E+x+F+G+x+y+H+I+I+q+h+g+g+!+g+i+J+I+K+L+M+N+I ] D+    ",
"      O+R P+Q+y+R+x+S+H+T+K+U+q+h+g+g+i+q+I+B+V+W+X+Y+^+R       ",
"        Z+_  .`+ @.@S++@ @@@s+r+J+h+i+q+I+s+#@$@%@% ;.Y+        ",
"          I &@} *@=@-@;@ @@@L+B+I+J+I+I+L+M+N+>@} ,@^+          ",
"          '@z ; )@!@`+=@~@B+{@s+r+r+K+]@^@/@(@_@;.] :@          ",
"            d 7 J <@[@}@*@*@#@V+L+]@#@|@1@2@3@, , +             ",
"              4@) 5 5@6@7@8@8@9@|@$@0@(@a@b@- c@n               ",
"                u.} c d@e@f@g@h@i@h@5@j@k@z ( u+                ",
"                  l@P.{ m@n@o@n@p@q@q@r@6., s@                  ",
"                    t@c @ u@v@w@v@x@y@z@% ,                     ",
"                      A@| B@C@D@E@F@S . n                       ",
"                        ]+G@H@I@I@+ ] +.                        ",
"                          { J@P+P+8 +                           ",
"                            c [ J@H@                            ",
"                              7.@                               ",
"                                                                "};
